# xmcd CD database file
#
# Track frame offsets:
#	150
#	21089
#	42506
#	71631
#	102119
#	123188
#	141794
#	162626
#	179100
#	195408
#	213141
#	232404
#
# Disc length: 3517 seconds
#
# Revision: 0
# Processed by: cddbd v1.5.2PL0 Copyright (c) Steve Scherf et al.
# Submitted via: CDex 1.70beta2
#
DISCID=b10dbb0c
DTITLE=Various Artist - 夜景ジャズ  RELAX-040
DYEAR=2013
DGENRE=Jazz
TTITLE0=What’ll I Do
TTITLE1=Painted On Canvas
TTITLE2=Be Good (Lion’s Song)
TTITLE3=Murmuration
TTITLE4=Overjoyed
TTITLE5=Arthur’s Theme
TTITLE6=Just The Way You Are
TTITLE7=(They Long To Be) Close To You
TTITLE8=Rainy Days And Mondays
TTITLE9=I’ve Never Been To Me
TTITLE10=Every Breath You Take
TTITLE11=Mother’s Song
EXTD=YEAR: 2013
EXTT0=
EXTT1=
EXTT2=
EXTT3=
EXTT4=
EXTT5=
EXTT6=
EXTT7=
EXTT8=
EXTT9=
EXTT10=
EXTT11=
PLAYORDER=
